<svg id="svg" version="1.1" xmlns="http://www.w3.org/2000/svg" xmlns:xlink="http://www.w3.org/1999/xlink" width="400" height="122.21695878730459" viewBox="0, 0, 400,122.21695878730459"><g id="svgg"><path id="path0" d="M84.213 0.329 C 82.158 0.806,80.469 1.724,78.947 3.190 L 78.145 3.964 77.614 3.690 C 77.047 3.398,57.482 3.258,56.482 3.539 C 55.042 3.944,54.314 5.295,54.183 7.807 L 54.083 9.698 53.417 9.194 C 53.050 8.917,52.525 8.510,52.250 8.290 C 51.975 8.070,51.431 7.713,51.042 7.497 C 50.652 7.282,50.333 7.057,50.333 6.999 C 50.333 6.940,49.752 6.603,49.042 6.250 C 48.331 5.897,47.712 5.556,47.667 5.493 C 47.621 5.430,47.021 5.132,46.333 4.832 C 45.646 4.531,44.933 4.191,44.750 4.076 C 44.567 3.961,43.742 3.670,42.917 3.429 C 42.092 3.189,41.288 2.920,41.131 2.832 C 40.081 2.242,34.347 1.501,30.833 1.501 C 27.184 1.501,21.223 2.321,21.028 2.849 C 20.997 2.932,20.872 3.000,20.749 3.000 C 20.308 3.000,17.666 3.976,17.408 4.235 C 17.262 4.381,17.062 4.500,16.963 4.500 C 16.714 4.500,14.967 5.369,14.691 5.630 C 14.567 5.748,14.170 5.995,13.809 6.179 C 13.448 6.363,13.019 6.642,12.855 6.799 C 12.692 6.955,12.364 7.196,12.128 7.333 C 11.599 7.642,10.154 8.887,8.939 10.083 C 8.166 10.844,7.312 11.911,5.536 14.333 C 4.873 15.238,3.670 17.469,3.335 18.417 C 3.140 18.967,2.881 19.604,2.759 19.833 C 2.425 20.460,1.666 24.041,1.551 25.526 C 1.496 26.245,1.387 26.833,1.309 26.833 C 1.231 26.833,1.167 28.221,1.167 29.917 C 1.167 31.613,1.230 33.000,1.308 33.000 C 1.386 33.000,1.497 33.694,1.555 34.542 C 1.697 36.630,2.408 40.200,2.837 40.975 C 2.920 41.126,3.223 41.831,3.510 42.542 C 3.797 43.252,4.094 43.833,4.171 43.833 C 4.248 43.833,4.364 44.001,4.429 44.206 C 4.539 44.553,5.296 45.812,5.507 46.000 C 5.559 46.046,5.822 46.379,6.092 46.740 C 6.631 47.460,9.626 50.497,9.805 50.505 C 9.866 50.507,10.254 50.813,10.667 51.184 C 11.079 51.554,11.754 52.056,12.167 52.298 C 12.579 52.540,12.992 52.824,13.083 52.930 C 13.175 53.035,13.699 53.338,14.248 53.602 C 14.797 53.867,15.393 54.215,15.571 54.375 C 15.750 54.535,15.978 54.667,16.078 54.667 C 16.178 54.667,16.820 54.936,17.505 55.264 C 18.689 55.833,19.088 55.994,20.833 56.608 C 21.246 56.754,21.621 56.926,21.667 56.991 C 21.756 57.118,23.997 57.972,24.625 58.118 C 24.831 58.166,25.000 58.262,25.000 58.331 C 25.000 58.399,25.652 58.702,26.449 59.003 C 27.246 59.304,28.128 59.679,28.408 59.837 C 28.688 59.995,29.322 60.265,29.817 60.437 C 30.312 60.609,30.911 60.956,31.149 61.208 C 31.388 61.460,31.664 61.667,31.765 61.667 C 32.132 61.667,32.553 62.747,32.434 63.383 C 32.260 64.312,30.255 65.511,28.367 65.815 C 26.879 66.055,23.000 65.563,23.000 65.135 C 23.000 65.061,22.906 65.000,22.792 65.000 C 21.859 64.999,20.269 63.873,17.919 61.549 C 16.208 59.857,15.979 59.748,14.167 59.755 C 12.409 59.762,10.655 60.919,9.997 62.506 C 9.885 62.778,9.733 63.000,9.661 63.000 C 9.588 63.000,9.287 63.393,8.991 63.874 C 8.695 64.354,8.366 64.823,8.259 64.915 C 7.987 65.150,7.167 66.458,7.167 66.657 C 7.167 66.748,7.026 66.897,6.855 66.988 C 6.684 67.080,6.414 67.427,6.257 67.759 C 6.099 68.091,5.846 68.490,5.693 68.644 C 5.541 68.799,5.210 69.242,4.957 69.628 C 4.705 70.013,4.199 70.724,3.833 71.206 C 3.467 71.689,3.168 72.159,3.167 72.251 C 3.167 72.343,2.942 72.630,2.667 72.890 C 2.392 73.149,2.167 73.429,2.167 73.511 C 2.167 73.593,1.786 74.182,1.320 74.820 C -0.432 77.222,-0.501 79.997,1.151 81.652 C 2.169 82.672,3.802 84.057,4.143 84.190 C 4.293 84.249,4.598 84.493,4.821 84.732 C 5.043 84.971,5.289 85.167,5.368 85.167 C 5.447 85.167,6.053 85.534,6.714 85.983 C 7.375 86.432,8.214 86.922,8.577 87.073 C 8.941 87.223,9.278 87.403,9.327 87.471 C 9.377 87.540,9.904 87.807,10.500 88.065 C 11.096 88.323,11.860 88.672,12.197 88.842 C 12.795 89.141,15.058 89.871,17.417 90.524 C 18.799 90.906,22.454 91.496,23.458 91.498 C 23.848 91.499,24.167 91.575,24.167 91.667 C 24.167 91.874,31.940 91.898,32.068 91.692 C 32.116 91.614,32.728 91.501,33.429 91.442 C 34.971 91.312,38.703 90.572,39.407 90.257 C 39.687 90.132,40.367 89.879,40.917 89.696 C 41.880 89.375,45.329 87.737,45.500 87.519 C 45.642 87.339,46.985 86.500,47.132 86.500 C 47.208 86.500,47.487 86.275,47.750 86.000 C 48.013 85.725,48.320 85.500,48.431 85.500 C 48.731 85.500,52.875 81.362,53.383 80.556 C 54.123 79.380,54.137 79.432,54.195 83.623 L 54.250 87.583 54.700 88.333 C 54.992 88.819,55.420 89.230,55.915 89.500 L 56.679 89.917 62.048 89.917 C 65.001 89.917,69.817 89.910,72.750 89.903 C 75.683 89.895,82.637 89.895,88.202 89.903 L 98.321 89.917 99.085 89.500 C 99.580 89.230,100.008 88.819,100.300 88.333 L 100.750 87.583 100.802 81.792 C 100.850 76.390,100.940 75.360,101.285 76.292 C 101.399 76.598,102.178 77.857,102.343 78.000 C 102.396 78.046,102.692 78.458,103.001 78.917 C 103.624 79.839,103.626 79.841,106.061 82.375 C 107.009 83.360,107.843 84.167,107.916 84.167 C 107.988 84.167,108.281 84.394,108.565 84.672 C 109.294 85.382,111.313 86.830,111.958 87.106 C 112.256 87.234,112.500 87.400,112.500 87.476 C 112.500 87.623,114.543 88.667,114.830 88.667 C 114.923 88.667,115.000 88.732,115.000 88.812 C 115.000 88.892,115.356 89.115,115.792 89.307 C 116.227 89.499,116.452 89.658,116.292 89.661 C 116.131 89.664,115.867 89.798,115.705 89.958 C 115.543 90.119,114.849 90.541,114.163 90.897 C 113.478 91.253,112.879 91.597,112.833 91.661 C 112.787 91.725,112.263 92.032,111.667 92.343 C 111.071 92.654,110.544 92.962,110.497 93.027 C 110.449 93.092,109.949 93.374,109.386 93.653 C 108.824 93.933,108.338 94.219,108.306 94.290 C 108.275 94.360,107.732 94.679,107.099 94.997 C 106.465 95.316,105.859 95.664,105.752 95.771 C 105.645 95.878,105.076 96.208,104.487 96.505 C 103.898 96.801,103.379 97.097,103.333 97.163 C 103.287 97.229,102.884 97.486,102.437 97.733 C 100.264 98.938,99.596 100.627,100.255 103.250 C 100.538 104.377,102.044 107.524,102.356 107.640 C 102.440 107.672,102.653 107.979,102.828 108.323 C 103.785 110.198,109.915 116.500,110.782 116.500 C 110.902 116.500,111.000 116.572,111.000 116.660 C 111.000 116.747,111.356 117.022,111.792 117.271 C 112.227 117.519,112.733 117.846,112.917 117.998 C 113.100 118.150,113.736 118.488,114.330 118.747 C 114.924 119.007,115.494 119.303,115.596 119.405 C 115.698 119.507,116.562 119.837,117.516 120.137 C 118.470 120.438,119.370 120.748,119.516 120.827 C 121.563 121.931,133.506 122.616,138.667 121.926 C 141.021 121.611,143.737 121.032,143.806 120.830 C 143.836 120.740,143.986 120.665,144.139 120.663 C 144.569 120.658,147.142 119.874,147.902 119.517 C 148.277 119.341,149.146 118.932,149.833 118.608 C 151.540 117.805,153.222 116.834,153.383 116.560 C 153.457 116.435,153.591 116.333,153.682 116.333 C 154.677 116.333,160.072 110.678,161.468 108.172 C 161.699 107.757,161.976 107.342,162.083 107.250 C 162.189 107.158,162.488 106.596,162.747 106.000 C 163.005 105.404,163.282 104.874,163.362 104.821 C 163.442 104.769,163.730 104.056,164.003 103.238 C 164.275 102.420,164.584 101.603,164.689 101.424 C 165.473 100.081,165.684 97.609,165.842 87.917 C 165.926 82.783,166.015 77.796,166.039 76.833 L 166.083 75.083 166.641 76.043 C 166.948 76.570,167.294 77.058,167.409 77.126 C 167.524 77.194,167.815 77.566,168.057 77.951 C 168.298 78.337,168.646 78.733,168.831 78.832 C 169.016 78.931,169.167 79.103,169.167 79.215 C 169.167 79.519,173.110 83.299,174.196 84.036 C 174.506 84.246,174.941 84.587,175.161 84.793 C 175.382 84.998,175.626 85.167,175.704 85.167 C 175.781 85.167,176.395 85.542,177.068 86.000 C 177.740 86.458,178.359 86.833,178.442 86.833 C 178.526 86.833,179.000 87.095,179.495 87.414 C 179.991 87.733,180.758 88.114,181.200 88.261 C 181.643 88.408,182.103 88.627,182.224 88.748 C 182.345 88.869,183.188 89.207,184.097 89.500 C 185.006 89.792,185.980 90.134,186.261 90.259 C 186.975 90.577,190.707 91.301,192.328 91.436 C 193.070 91.498,193.717 91.613,193.765 91.691 C 193.893 91.898,201.333 91.874,201.333 91.667 C 201.333 91.575,201.638 91.500,202.010 91.500 C 203.351 91.500,207.955 90.663,208.917 90.245 C 209.192 90.125,210.167 89.789,211.083 89.497 C 212.000 89.206,212.787 88.914,212.833 88.848 C 212.879 88.783,213.433 88.512,214.064 88.247 C 214.696 87.981,215.296 87.683,215.398 87.583 C 215.500 87.484,216.071 87.158,216.667 86.858 C 217.879 86.249,218.259 86.007,220.215 84.597 C 222.705 82.803,224.573 81.032,227.083 78.083 C 227.675 77.389,228.784 75.773,229.257 74.917 C 229.510 74.458,229.769 74.046,229.831 74.000 C 229.894 73.954,230.199 73.392,230.509 72.750 C 230.819 72.108,231.129 71.543,231.199 71.493 C 231.268 71.443,231.561 70.731,231.850 69.910 C 232.139 69.088,232.432 68.342,232.502 68.250 C 232.739 67.936,233.502 64.470,234.005 61.417 C 234.186 60.320,234.186 54.126,234.006 53.167 C 233.928 52.754,233.746 51.742,233.601 50.917 C 233.260 48.980,232.697 46.656,232.514 46.428 C 232.434 46.330,232.137 45.580,231.853 44.761 C 231.569 43.942,231.274 43.229,231.197 43.177 C 231.121 43.126,230.881 42.651,230.664 42.122 C 230.447 41.594,230.153 41.027,230.010 40.863 C 229.867 40.698,229.609 40.306,229.437 39.990 C 228.747 38.725,228.456 38.253,228.265 38.089 C 228.154 37.994,227.861 37.598,227.613 37.208 C 227.365 36.819,227.093 36.500,227.009 36.500 C 226.925 36.500,226.804 36.337,226.740 36.137 C 226.591 35.667,221.909 31.000,221.586 31.000 C 221.451 31.000,221.222 30.819,221.077 30.598 C 220.932 30.376,220.574 30.081,220.282 29.942 C 219.989 29.803,219.600 29.550,219.417 29.381 C 218.990 28.987,217.380 28.000,217.164 28.000 C 217.074 28.000,217.000 27.937,217.000 27.860 C 217.000 27.718,214.625 26.500,214.347 26.500 C 214.263 26.500,214.169 26.437,214.139 26.361 C 214.081 26.215,212.082 25.428,211.292 25.240 C 211.040 25.180,210.833 25.074,210.833 25.004 C 210.833 24.935,209.802 24.637,208.542 24.343 C 207.281 24.049,206.116 23.737,205.953 23.650 C 204.186 22.702,190.459 22.708,189.254 23.656 C 189.160 23.730,188.483 23.919,187.750 24.076 C 186.095 24.431,184.610 24.844,184.500 24.981 C 184.454 25.038,183.967 25.230,183.417 25.407 C 181.680 25.967,176.618 28.584,176.167 29.155 C 176.121 29.213,175.671 29.520,175.167 29.837 C 174.662 30.154,174.137 30.532,174.000 30.678 C 173.862 30.823,173.399 31.218,172.969 31.556 C 171.018 33.093,167.674 36.797,166.716 38.483 C 166.477 38.905,166.190 39.326,166.079 39.419 C 165.969 39.511,165.633 40.074,165.334 40.669 C 165.035 41.263,164.728 41.790,164.652 41.839 C 164.577 41.888,164.405 42.188,164.270 42.505 L 164.026 43.083 163.836 42.583 C 163.639 42.065,163.191 41.077,162.437 39.500 C 161.865 38.305,160.983 36.753,160.663 36.379 C 160.524 36.216,160.228 35.787,160.005 35.426 C 159.486 34.584,156.740 31.472,156.313 31.241 C 156.134 31.144,155.785 30.856,155.536 30.600 C 154.921 29.967,152.465 28.168,152.215 28.167 C 152.104 28.167,151.879 28.026,151.715 27.854 C 151.551 27.682,150.854 27.297,150.167 26.998 C 149.479 26.700,148.879 26.403,148.833 26.339 C 148.713 26.170,146.834 25.333,146.575 25.333 C 146.455 25.333,146.248 25.224,146.115 25.091 C 145.860 24.836,143.165 24.106,141.750 23.908 C 141.292 23.844,140.842 23.733,140.750 23.662 C 139.679 22.831,123.816 22.841,123.528 23.673 C 123.497 23.761,123.317 23.833,123.127 23.833 C 122.672 23.833,118.774 24.846,118.667 24.992 C 118.621 25.054,117.893 25.352,117.050 25.653 C 116.206 25.955,115.494 26.256,115.466 26.322 C 115.439 26.388,114.876 26.690,114.214 26.993 C 113.553 27.296,112.885 27.684,112.730 27.855 C 112.575 28.027,112.356 28.167,112.244 28.167 C 112.132 28.167,111.434 28.617,110.694 29.167 C 109.953 29.717,109.298 30.167,109.238 30.167 C 109.105 30.167,108.796 30.456,106.333 32.886 C 103.734 35.451,102.098 37.456,101.391 38.948 C 100.904 39.974,100.853 39.513,100.801 33.625 L 100.750 27.749 100.270 26.991 C 99.450 25.695,98.805 25.442,96.127 25.363 C 93.612 25.289,93.579 25.264,94.962 24.476 C 98.131 22.670,100.833 18.505,100.833 15.425 C 100.833 15.191,100.908 15.000,101.000 15.000 C 101.101 15.000,101.167 14.278,101.167 13.167 C 101.167 12.158,101.109 11.333,101.038 11.333 C 100.967 11.333,100.822 10.789,100.716 10.124 C 100.457 8.494,100.078 7.420,99.400 6.388 C 99.088 5.915,98.833 5.471,98.833 5.402 C 98.833 5.067,96.120 2.406,95.457 2.091 C 95.139 1.940,94.737 1.688,94.564 1.531 C 93.122 0.220,87.498 -0.433,84.213 0.329 M90.393 4.261 C 96.959 5.935,99.229 14.794,94.345 19.678 C 88.494 25.529,78.732 21.343,78.773 13.000 C 78.802 6.911,84.369 2.725,90.393 4.261 M257.202 5.500 C 244.186 6.871,235.082 16.184,234.549 28.673 C 234.049 40.406,238.704 47.520,249.917 52.159 C 251.292 52.727,253.017 53.440,253.750 53.743 C 258.321 55.628,260.218 56.442,261.250 56.960 C 269.397 61.050,266.106 69.815,256.417 69.830 C 251.731 69.838,248.147 68.354,244.859 65.047 C 243.575 63.756,243.450 63.671,243.242 63.949 C 241.995 65.612,233.167 78.332,233.167 78.464 C 233.167 79.431,239.364 83.521,243.222 85.101 C 258.515 91.364,275.407 86.758,281.495 74.667 C 285.205 67.298,285.203 55.240,281.491 48.753 C 278.887 44.201,274.703 41.122,267.000 38.087 C 257.730 34.436,255.604 33.389,254.394 31.884 C 250.864 27.491,254.482 22.081,260.916 22.132 C 264.913 22.164,267.404 23.247,271.469 26.720 C 272.348 27.472,273.081 27.982,273.161 27.898 C 273.487 27.554,282.318 14.901,282.423 14.627 C 282.565 14.258,279.700 11.897,277.317 10.418 C 271.251 6.655,263.722 4.814,257.202 5.500 M36.083 5.901 C 42.070 6.931,49.265 10.485,52.701 14.111 L 53.153 14.587 48.535 21.202 C 45.995 24.840,43.857 27.821,43.783 27.825 C 43.710 27.830,42.954 27.245,42.103 26.525 C 35.739 21.144,29.046 20.416,25.101 24.677 C 21.844 28.195,23.775 32.413,29.799 34.940 C 30.597 35.275,32.037 35.879,33.000 36.283 C 33.962 36.687,36.263 37.610,38.113 38.334 C 50.365 43.128,54.879 49.361,54.887 61.500 C 54.895 72.596,50.592 80.245,41.822 84.729 C 33.242 89.116,20.378 88.648,10.917 83.605 C 7.901 81.998,4.067 79.072,4.099 78.403 C 4.107 78.227,5.593 75.983,7.401 73.417 C 9.209 70.850,11.452 67.647,12.385 66.299 C 13.319 64.950,14.122 63.844,14.170 63.840 C 14.218 63.836,14.931 64.492,15.754 65.297 C 18.627 68.109,21.333 69.396,25.333 69.854 C 36.274 71.106,41.052 60.964,31.558 56.641 C 30.090 55.973,27.781 55.006,23.417 53.233 C 11.802 48.516,7.178 43.903,5.722 35.583 C 5.261 32.947,5.305 26.658,5.800 24.381 C 7.999 14.268,16.743 6.789,27.750 5.605 C 29.139 5.456,34.629 5.651,36.083 5.901 M75.667 46.473 L 75.667 85.780 70.890 85.890 C 68.262 85.950,64.287 86.000,62.056 86.000 L 58.000 86.000 58.000 46.669 L 58.000 7.338 63.375 7.292 C 66.331 7.266,70.306 7.228,72.208 7.206 L 75.667 7.167 75.667 46.473 M364.333 18.054 L 364.333 28.994 360.470 29.039 L 356.607 29.083 356.465 29.583 C 356.387 29.858,356.030 31.208,355.672 32.583 C 354.926 35.452,353.452 41.032,352.988 42.750 C 352.814 43.392,352.671 44.010,352.670 44.125 C 352.667 44.288,353.941 44.333,358.491 44.333 L 364.316 44.333 364.382 56.708 C 364.444 68.370,364.467 69.180,364.788 70.761 C 366.815 80.728,372.529 86.061,382.750 87.522 C 384.590 87.785,390.740 87.825,390.991 87.576 C 391.148 87.419,391.801 85.270,393.166 80.417 C 393.891 77.839,394.972 74.112,395.603 72.018 C 396.274 69.791,396.321 69.944,395.076 70.287 C 391.855 71.172,386.537 70.392,384.419 68.723 C 382.220 66.990,382.167 66.655,382.167 54.553 L 382.167 44.333 386.064 44.333 L 389.962 44.333 390.465 42.292 C 390.741 41.169,391.272 39.087,391.643 37.667 C 393.367 31.081,393.811 29.266,393.732 29.138 C 393.685 29.062,391.064 29.000,387.907 29.000 L 382.167 29.000 382.167 18.260 C 382.167 12.353,382.104 7.481,382.028 7.434 C 381.951 7.387,377.939 7.295,373.111 7.231 L 364.333 7.113 364.333 18.054 M54.167 32.333 C 54.167 38.750,54.126 44.000,54.077 44.000 C 54.028 44.000,53.109 43.119,52.034 42.042 C 50.959 40.965,49.705 39.823,49.248 39.505 C 48.791 39.187,48.282 38.803,48.118 38.652 C 47.953 38.502,47.484 38.206,47.076 37.996 C 46.668 37.786,46.333 37.562,46.333 37.498 C 46.333 37.435,45.790 37.136,45.125 36.834 C 44.460 36.532,43.804 36.194,43.667 36.083 C 43.529 35.972,42.744 35.640,41.921 35.347 C 41.099 35.053,40.349 34.753,40.255 34.681 C 40.160 34.608,39.372 34.307,38.502 34.012 C 37.633 33.717,36.883 33.418,36.836 33.348 C 36.789 33.278,36.093 32.985,35.290 32.697 C 34.487 32.408,33.538 32.023,33.181 31.840 C 32.513 31.500,31.496 31.105,30.542 30.815 C 30.244 30.725,30.000 30.591,30.000 30.518 C 30.000 30.445,29.650 30.206,29.223 29.986 C 27.384 29.040,27.454 27.432,29.368 26.658 C 29.670 26.536,29.970 26.356,30.036 26.259 C 30.192 26.029,33.389 26.038,33.690 26.270 C 33.815 26.365,34.479 26.645,35.167 26.892 C 35.854 27.138,36.604 27.489,36.833 27.671 C 37.063 27.852,37.550 28.229,37.917 28.507 C 38.966 29.303,40.008 30.204,40.531 30.769 C 40.796 31.055,41.329 31.419,41.715 31.578 C 42.101 31.737,42.547 31.935,42.706 32.017 C 42.865 32.099,43.298 32.167,43.667 32.167 C 44.036 32.167,44.468 32.099,44.627 32.017 C 44.786 31.935,45.237 31.735,45.629 31.574 C 46.440 31.238,47.479 30.187,47.992 29.183 C 48.183 28.807,48.412 28.500,48.500 28.500 C 48.588 28.500,48.805 28.219,48.982 27.875 C 49.159 27.531,49.443 27.100,49.613 26.917 C 49.783 26.733,50.182 26.175,50.500 25.675 C 50.817 25.176,51.247 24.584,51.455 24.359 C 51.663 24.135,51.833 23.876,51.833 23.784 C 51.833 23.693,52.081 23.310,52.384 22.934 C 52.686 22.558,53.155 21.894,53.425 21.459 C 53.695 21.023,53.973 20.667,54.042 20.667 C 54.110 20.667,54.167 25.917,54.167 32.333 M80.652 24.444 C 81.073 24.688,81.454 24.939,81.500 25.002 C 81.546 25.065,81.696 25.160,81.833 25.212 C 81.971 25.264,81.540 25.313,80.875 25.320 L 79.667 25.333 79.667 24.667 C 79.667 23.877,79.672 23.875,80.652 24.444 M203.417 27.402 C 231.696 32.454,239.865 66.102,216.668 81.990 C 197.821 94.899,170.582 85.044,165.756 63.569 C 161.009 42.443,180.866 23.373,203.417 27.402 M230.552 27.750 C 230.553 28.300,230.584 28.505,230.621 28.205 C 230.658 27.906,230.657 27.456,230.619 27.205 C 230.581 26.955,230.551 27.200,230.552 27.750 M318.250 26.942 C 302.678 28.036,290.678 37.629,287.797 51.287 C 287.241 53.920,287.240 60.737,287.794 63.269 C 291.958 82.275,313.511 92.774,332.750 85.168 C 334.808 84.354,334.667 84.351,334.667 85.204 L 334.667 85.947 337.792 86.057 C 339.510 86.117,343.485 86.166,346.625 86.166 L 352.333 86.167 352.375 74.208 C 352.451 52.307,352.422 51.882,350.518 46.860 C 345.896 34.672,331.827 25.988,318.250 26.942 M138.000 27.407 C 142.285 28.019,143.633 28.434,147.333 30.281 C 156.256 34.736,160.921 42.233,161.834 53.583 C 162.049 56.263,162.047 91.839,161.831 94.333 C 160.378 111.116,144.248 121.209,124.417 117.744 C 116.132 116.296,108.405 110.748,104.928 103.750 C 103.889 101.659,103.887 101.649,104.628 101.240 C 104.970 101.052,106.225 100.332,107.417 99.642 C 108.608 98.951,110.821 97.670,112.333 96.795 C 113.846 95.920,116.377 94.451,117.958 93.531 C 120.620 91.982,120.838 91.885,120.903 92.221 C 121.550 95.566,122.222 96.922,124.234 98.933 C 130.612 105.312,141.245 102.123,143.071 93.283 C 143.321 92.072,143.467 86.000,143.246 86.000 C 143.199 86.000,142.505 86.255,141.705 86.567 C 121.897 94.283,100.163 79.258,100.142 57.833 C 100.121 37.928,116.949 24.404,138.000 27.407 M97.000 57.667 L 97.000 86.000 88.167 86.000 L 79.333 86.000 79.333 57.667 L 79.333 29.333 88.167 29.333 L 97.000 29.333 97.000 57.667 M230.542 32.417 C 230.544 32.783,230.578 32.914,230.618 32.706 C 230.658 32.499,230.656 32.199,230.615 32.040 C 230.573 31.880,230.540 32.050,230.542 32.417 M196.250 42.932 C 182.201 44.891,177.788 61.620,189.312 69.231 C 200.469 76.600,215.443 66.410,212.025 53.774 C 210.229 47.132,202.791 42.020,196.250 42.932 M322.213 43.248 C 332.070 44.733,337.751 55.910,332.811 64.100 C 327.493 72.917,315.714 74.150,308.741 66.620 C 299.583 56.731,308.542 41.187,322.213 43.248 M129.833 43.271 C 117.801 45.580,113.324 59.398,121.930 67.661 C 133.545 78.811,151.951 65.639,144.898 51.225 C 142.267 45.849,135.373 42.208,129.833 43.271 M233.932 44.750 C 234.082 44.979,234.232 45.167,234.266 45.167 C 234.299 45.167,234.241 44.979,234.136 44.750 C 234.032 44.521,233.882 44.333,233.803 44.333 C 233.724 44.333,233.782 44.521,233.932 44.750 M199.500 47.162 C 199.546 47.226,199.940 47.368,200.377 47.476 C 201.209 47.682,203.008 48.429,203.161 48.632 C 203.210 48.697,203.588 48.985,204.001 49.273 C 205.450 50.281,206.276 51.229,207.253 53.000 C 211.416 60.552,203.041 69.821,194.429 67.192 C 193.793 66.998,193.231 66.776,193.179 66.698 C 193.126 66.621,192.693 66.347,192.216 66.089 C 191.738 65.832,191.179 65.463,190.973 65.269 C 190.767 65.075,190.339 64.708,190.021 64.454 C 189.703 64.199,189.362 63.851,189.263 63.680 C 189.164 63.508,188.808 62.966,188.471 62.476 C 187.723 61.385,187.219 60.138,187.069 59.009 C 187.007 58.542,186.891 58.119,186.811 58.070 C 186.620 57.952,186.625 56.740,186.819 56.373 C 186.903 56.214,187.062 55.635,187.173 55.088 C 187.349 54.214,187.919 52.739,188.172 52.500 C 188.220 52.454,188.539 52.023,188.880 51.541 C 189.551 50.593,190.577 49.601,191.400 49.104 C 191.684 48.932,191.954 48.736,192.000 48.669 C 192.146 48.454,193.049 48.056,194.250 47.677 C 194.892 47.475,195.567 47.242,195.750 47.160 C 196.433 46.853,199.282 46.855,199.500 47.162 M135.318 47.922 C 135.997 48.167,136.915 48.622,137.358 48.934 C 137.801 49.245,138.210 49.500,138.266 49.500 C 138.404 49.500,140.005 51.162,140.274 51.583 C 140.391 51.767,140.616 52.160,140.774 52.458 C 140.932 52.756,141.117 53.000,141.184 53.000 C 141.404 53.000,142.155 55.558,142.266 56.687 C 142.422 58.267,141.812 61.298,141.193 62.015 C 141.082 62.144,140.767 62.598,140.492 63.023 C 139.637 64.348,137.671 66.105,136.708 66.405 C 136.502 66.470,136.333 66.586,136.333 66.664 C 136.333 66.742,135.865 66.961,135.292 67.150 C 132.407 68.103,129.652 67.871,127.264 66.474 C 126.741 66.167,126.184 65.842,126.028 65.750 C 125.713 65.565,124.147 64.000,123.500 63.224 C 123.022 62.650,122.465 61.551,122.161 60.583 C 122.046 60.217,121.869 59.863,121.768 59.798 C 121.506 59.629,121.516 55.363,121.778 55.201 C 121.886 55.134,122.030 54.856,122.098 54.582 C 122.286 53.828,122.939 52.475,123.368 51.949 C 124.136 51.009,125.779 49.333,125.933 49.333 C 126.020 49.333,126.352 49.118,126.672 48.854 C 127.188 48.429,129.195 47.651,130.333 47.435 C 131.449 47.223,134.099 47.482,135.318 47.922 M234.863 68.662 L 234.497 69.157 234.860 69.023 C 235.059 68.949,235.282 68.726,235.356 68.528 C 235.546 68.013,235.292 68.082,234.863 68.662 M230.923 74.290 C 230.691 74.541,230.500 74.816,230.500 74.901 C 230.500 74.986,230.519 75.024,230.542 74.985 C 230.565 74.947,230.804 74.672,231.073 74.374 C 231.342 74.077,231.514 73.833,231.455 73.833 C 231.395 73.833,231.156 74.039,230.923 74.290 M230.348 81.603 C 230.569 81.889,230.784 82.093,230.824 82.056 C 230.865 82.020,230.684 81.786,230.422 81.537 L 229.945 81.083 230.348 81.603 M139.068 92.458 C 138.948 93.124,138.506 94.361,138.339 94.500 C 138.284 94.546,137.999 94.915,137.705 95.321 C 135.590 98.244,130.526 99.065,128.167 96.866 C 127.938 96.653,127.544 96.369,127.292 96.235 C 127.040 96.101,126.833 95.900,126.833 95.787 C 126.832 95.675,126.626 95.358,126.374 95.083 C 125.841 94.500,125.399 93.604,125.248 92.795 L 125.140 92.224 126.362 92.376 C 128.091 92.592,135.804 92.406,137.250 92.114 C 139.180 91.724,139.201 91.728,139.068 92.458 " stroke="none" fill="#fafafa" fill-rule="evenodd"></path><path id="path1" d="M255.917 1.670 C 253.761 1.912,250.684 2.546,250.250 2.837 C 250.158 2.899,249.433 3.153,248.638 3.402 C 247.844 3.651,247.026 4.000,246.821 4.177 C 246.616 4.355,246.354 4.500,246.238 4.500 C 246.023 4.500,244.403 5.273,244.089 5.525 C 243.833 5.732,241.354 7.388,240.992 7.596 C 240.528 7.861,237.970 10.316,236.801 11.617 C 236.233 12.250,234.167 15.269,234.167 15.466 C 234.167 15.548,234.028 15.740,233.859 15.894 C 233.689 16.047,233.335 16.715,233.072 17.378 C 232.809 18.041,232.537 18.624,232.469 18.673 C 232.298 18.796,231.733 20.693,231.490 21.958 C 231.380 22.531,231.232 23.000,231.162 23.000 C 230.460 23.000,230.453 36.138,231.155 37.083 C 231.223 37.175,231.372 37.700,231.486 38.250 C 231.753 39.537,232.340 41.559,232.477 41.667 C 232.610 41.771,233.026 42.844,233.043 43.125 C 233.050 43.240,233.118 43.333,233.194 43.333 C 233.271 43.333,233.333 43.432,233.333 43.552 C 233.333 43.672,233.468 43.916,233.632 44.094 C 233.797 44.271,234.184 44.867,234.494 45.417 C 234.804 45.967,235.288 46.620,235.570 46.868 C 235.852 47.117,236.032 47.323,235.969 47.327 C 235.367 47.362,241.512 52.667,242.155 52.667 C 242.233 52.667,242.336 52.766,242.382 52.886 C 242.428 53.007,242.924 53.323,243.483 53.589 C 244.042 53.855,244.500 54.119,244.500 54.177 C 244.500 54.235,244.819 54.417,245.208 54.582 C 245.598 54.746,246.381 55.095,246.948 55.357 C 248.291 55.977,250.517 56.833,250.788 56.833 C 250.905 56.833,251.000 56.903,251.000 56.989 C 251.000 57.074,251.169 57.193,251.375 57.252 C 252.128 57.468,254.086 58.224,254.167 58.329 C 254.213 58.389,254.737 58.614,255.333 58.830 C 256.394 59.214,258.174 59.990,259.665 60.718 C 262.107 61.910,262.422 63.984,260.292 64.845 C 259.994 64.966,259.712 65.114,259.667 65.174 C 259.013 66.036,252.333 66.017,252.333 65.153 C 252.333 65.069,252.240 65.000,252.125 65.000 C 251.819 65.000,249.920 64.077,249.495 63.722 C 249.294 63.554,248.511 62.815,247.755 62.080 C 245.564 59.951,245.204 59.750,243.598 59.752 C 241.449 59.755,240.513 60.429,238.733 63.250 C 238.386 63.800,238.012 64.325,237.902 64.417 C 237.793 64.508,237.496 64.921,237.243 65.333 C 236.990 65.746,236.736 66.121,236.678 66.167 C 236.424 66.367,235.513 67.959,235.407 68.388 C 235.343 68.648,235.150 68.912,234.978 68.976 C 234.806 69.039,234.522 69.352,234.347 69.671 C 234.172 69.989,233.948 70.231,233.848 70.208 C 233.748 70.185,233.667 70.268,233.667 70.392 C 233.667 70.515,233.442 70.927,233.167 71.307 C 232.892 71.687,232.667 72.033,232.667 72.076 C 232.667 72.120,232.442 72.385,232.167 72.667 C 231.892 72.948,231.667 73.285,231.667 73.417 C 231.667 73.548,231.455 73.901,231.197 74.203 C 230.939 74.504,230.557 75.033,230.348 75.379 C 230.138 75.726,229.854 76.123,229.714 76.262 C 228.780 77.196,229.020 79.826,230.162 81.181 C 230.531 81.618,230.833 82.057,230.833 82.155 C 230.833 82.253,230.895 82.315,230.970 82.292 C 231.045 82.269,231.385 82.494,231.725 82.792 C 232.066 83.090,232.290 83.333,232.223 83.333 C 232.156 83.333,232.472 83.565,232.926 83.848 C 233.379 84.130,233.826 84.449,233.919 84.556 C 234.169 84.844,235.130 85.500,235.302 85.500 C 235.384 85.500,235.653 85.687,235.899 85.915 C 236.145 86.143,236.850 86.571,237.465 86.866 C 238.080 87.161,238.666 87.483,238.767 87.582 C 238.868 87.680,239.506 87.981,240.184 88.250 C 240.862 88.520,241.454 88.791,241.500 88.853 C 241.546 88.916,242.469 89.235,243.553 89.564 C 244.636 89.892,245.598 90.207,245.690 90.265 C 246.202 90.581,251.416 91.500,252.698 91.500 C 253.129 91.500,253.527 91.575,253.583 91.667 C 253.714 91.879,260.891 91.893,261.294 91.682 C 261.453 91.598,262.386 91.442,263.367 91.334 C 271.361 90.452,279.019 85.915,283.461 79.427 C 283.960 78.699,284.416 77.985,284.475 77.840 C 284.535 77.695,284.817 77.165,285.103 76.663 C 285.390 76.161,285.802 75.225,286.020 74.583 C 286.238 73.942,286.460 73.379,286.512 73.333 C 286.565 73.287,286.665 73.100,286.736 72.917 C 286.846 72.628,286.914 72.687,287.241 73.356 C 287.449 73.781,287.779 74.301,287.976 74.512 C 288.172 74.724,288.333 74.967,288.333 75.054 C 288.333 76.519,295.992 84.123,299.042 85.686 C 299.385 85.863,299.667 86.064,299.667 86.133 C 299.667 86.203,300.210 86.516,300.875 86.828 C 301.540 87.141,302.166 87.479,302.267 87.579 C 302.368 87.679,303.006 87.981,303.684 88.250 C 304.362 88.520,304.958 88.798,305.009 88.868 C 305.123 89.027,308.120 90.000,308.494 90.000 C 308.644 90.000,308.842 90.076,308.935 90.168 C 309.188 90.421,312.734 91.115,314.931 91.342 C 319.536 91.817,327.251 91.308,330.161 90.338 C 332.563 89.538,332.744 89.509,333.780 89.756 C 335.047 90.059,352.589 90.108,353.764 89.812 C 354.986 89.505,356.094 88.231,356.249 86.958 C 356.307 86.477,356.325 78.471,356.289 69.167 C 356.219 51.136,356.270 52.349,355.443 49.125 L 355.197 48.167 357.765 48.167 L 360.333 48.167 360.336 57.042 C 360.339 67.055,360.562 71.626,361.114 73.000 C 361.170 73.137,361.423 74.051,361.676 75.031 C 362.071 76.555,363.625 80.233,363.987 80.500 C 364.049 80.546,364.315 80.958,364.579 81.417 C 364.842 81.875,365.226 82.438,365.431 82.667 C 365.636 82.896,366.254 83.597,366.803 84.225 C 367.352 84.853,368.033 85.508,368.317 85.681 C 368.601 85.854,368.833 86.064,368.833 86.148 C 368.833 86.233,369.166 86.496,369.572 86.734 C 369.978 86.972,370.419 87.276,370.552 87.410 C 370.686 87.543,371.273 87.893,371.856 88.187 C 372.439 88.481,372.956 88.780,373.004 88.851 C 373.431 89.485,379.091 91.051,382.004 91.341 C 383.056 91.446,384.047 91.600,384.206 91.683 C 384.577 91.876,390.951 91.881,391.070 91.689 C 391.119 91.609,391.468 91.494,391.845 91.434 C 392.787 91.283,393.771 90.753,394.120 90.206 C 394.281 89.955,394.507 89.675,394.622 89.583 C 394.738 89.492,395.021 88.667,395.252 87.750 C 395.482 86.833,395.743 85.957,395.830 85.802 C 395.918 85.647,396.220 84.597,396.502 83.469 C 396.784 82.340,397.115 81.192,397.239 80.917 C 397.362 80.642,397.698 79.479,397.985 78.333 C 398.273 77.188,398.579 76.123,398.666 75.968 C 398.994 75.383,400.000 70.981,399.999 70.133 C 399.998 68.678,399.248 66.833,398.658 66.833 C 398.571 66.833,398.356 66.690,398.180 66.514 C 397.722 66.055,396.188 65.899,394.750 66.164 C 394.108 66.283,393.171 66.427,392.667 66.485 C 392.162 66.543,391.653 66.652,391.534 66.726 C 391.416 66.801,391.228 66.791,391.118 66.704 C 391.007 66.617,390.430 66.497,389.835 66.438 C 387.806 66.236,386.787 65.691,386.472 64.640 C 386.367 64.288,386.217 64.000,386.140 64.000 C 386.063 64.000,386.000 60.438,386.000 56.083 L 386.000 48.167 388.260 48.167 C 392.360 48.167,393.397 47.456,394.092 44.167 C 394.257 43.387,394.441 42.712,394.500 42.667 C 394.606 42.586,394.886 41.493,395.418 39.083 C 395.560 38.442,395.747 37.767,395.833 37.583 C 395.973 37.286,396.605 34.717,396.920 33.167 C 396.985 32.846,397.094 32.508,397.162 32.417 C 397.951 31.348,397.996 27.734,397.231 26.848 C 395.806 25.195,395.689 25.167,390.260 25.167 L 386.000 25.167 386.000 15.907 C 386.000 5.859,385.975 5.537,385.105 4.606 C 383.916 3.333,384.735 3.423,373.758 3.363 C 362.519 3.302,362.580 3.297,361.449 4.429 C 360.325 5.552,360.333 5.467,360.333 15.889 L 360.333 25.131 357.792 25.198 C 354.541 25.284,353.035 26.127,352.617 28.092 C 352.163 30.231,351.615 32.445,351.506 32.583 C 351.433 32.675,351.121 33.856,350.812 35.208 C 350.184 37.956,350.220 37.901,349.609 37.042 C 348.805 35.911,346.275 33.264,344.867 32.080 C 344.107 31.440,343.319 30.759,343.117 30.567 C 342.915 30.375,342.418 30.009,342.013 29.755 C 341.608 29.501,341.143 29.171,340.981 29.022 C 340.818 28.872,340.325 28.567,339.884 28.344 C 339.444 28.120,338.971 27.846,338.833 27.734 C 338.696 27.622,338.021 27.283,337.333 26.979 C 336.646 26.675,336.001 26.348,335.901 26.251 C 335.801 26.155,335.051 25.857,334.235 25.588 C 333.418 25.320,332.712 25.054,332.667 24.996 C 332.513 24.805,329.810 24.129,326.250 23.392 C 323.503 22.822,314.668 22.939,312.417 23.574 C 311.958 23.703,310.571 24.046,309.334 24.336 C 308.097 24.626,307.047 24.920,307.001 24.990 C 306.955 25.060,306.185 25.359,305.292 25.656 C 304.398 25.952,303.667 26.262,303.667 26.344 C 303.667 26.426,303.460 26.543,303.208 26.604 C 302.724 26.721,300.808 27.635,300.667 27.817 C 300.621 27.875,300.396 28.014,300.167 28.125 C 299.389 28.500,297.614 29.693,295.935 30.967 C 294.057 32.393,290.219 36.408,289.678 37.513 C 289.547 37.781,289.384 38.000,289.315 38.000 C 289.247 38.000,288.911 38.469,288.569 39.042 C 288.227 39.615,287.854 40.196,287.741 40.333 C 287.437 40.702,285.864 43.872,285.573 44.701 C 284.910 46.589,284.898 46.597,284.292 45.498 C 284.040 45.041,283.758 44.667,283.667 44.667 C 283.575 44.667,283.500 44.563,283.500 44.436 C 283.500 44.309,283.200 43.934,282.833 43.603 C 282.467 43.272,282.167 42.936,282.167 42.857 C 282.167 42.777,281.633 42.233,280.981 41.648 C 280.328 41.062,279.488 40.302,279.113 39.958 C 278.738 39.615,278.353 39.333,278.257 39.333 C 278.161 39.333,277.870 39.108,277.610 38.833 C 277.351 38.558,277.066 38.333,276.977 38.333 C 276.888 38.333,276.388 38.046,275.866 37.695 C 274.680 36.897,272.095 35.634,270.667 35.153 C 270.071 34.953,269.499 34.722,269.395 34.641 C 269.291 34.559,268.579 34.276,267.812 34.012 C 267.044 33.747,266.110 33.378,265.735 33.191 C 265.360 33.004,264.573 32.686,263.985 32.483 C 263.397 32.281,262.767 32.019,262.583 31.901 C 262.400 31.783,261.614 31.452,260.837 31.167 C 260.060 30.881,259.385 30.593,259.337 30.528 C 259.289 30.462,258.834 30.160,258.326 29.856 C 256.574 28.810,256.595 27.872,258.392 26.796 C 259.877 25.908,261.910 25.771,263.373 26.461 C 263.808 26.666,264.237 26.833,264.327 26.833 C 264.598 26.833,266.333 27.696,266.333 27.831 C 266.333 27.899,266.652 28.165,267.042 28.420 C 267.785 28.908,267.836 28.950,269.387 30.400 C 270.345 31.295,271.223 31.833,271.724 31.833 C 271.865 31.833,272.027 31.908,272.083 32.000 C 272.218 32.217,273.833 32.217,273.833 32.000 C 273.833 31.908,274.002 31.832,274.208 31.830 C 274.753 31.826,276.088 30.934,276.438 30.342 C 276.603 30.062,276.795 29.833,276.865 29.833 C 276.935 29.833,277.104 29.615,277.242 29.348 C 277.515 28.820,279.162 26.426,279.570 25.964 C 279.708 25.807,280.018 25.368,280.257 24.989 C 280.672 24.332,281.988 22.466,282.325 22.057 C 282.413 21.951,282.754 21.463,283.083 20.974 C 283.412 20.484,283.974 19.671,284.332 19.167 C 284.689 18.662,284.986 18.156,284.991 18.042 C 284.996 17.927,285.072 17.833,285.160 17.833 C 285.579 17.833,286.220 16.283,286.297 15.083 C 286.449 12.719,286.147 12.135,283.650 9.970 C 282.353 8.845,279.977 7.167,279.681 7.167 C 279.601 7.167,279.499 7.070,279.453 6.952 C 279.408 6.835,278.856 6.488,278.227 6.182 C 277.598 5.876,277.046 5.575,277.000 5.514 C 276.954 5.453,276.317 5.147,275.583 4.835 C 274.850 4.523,274.100 4.176,273.917 4.064 C 273.733 3.953,272.908 3.662,272.083 3.419 C 271.258 3.175,270.458 2.909,270.305 2.828 C 268.611 1.929,259.875 1.226,255.917 1.670 M85.404 4.234 C 79.739 5.609,76.945 12.652,80.003 17.848 C 84.722 25.865,96.994 22.484,96.994 13.167 C 96.994 7.049,91.440 2.768,85.404 4.234 M264.833 5.746 C 269.158 6.417,273.467 8.029,277.317 10.418 C 279.700 11.897,282.565 14.258,282.423 14.627 C 282.318 14.901,273.487 27.554,273.161 27.898 C 273.081 27.982,272.348 27.472,271.469 26.720 C 267.404 23.247,264.913 22.164,260.916 22.132 C 254.482 22.081,250.864 27.491,254.394 31.884 C 255.604 33.389,257.730 34.436,267.000 38.087 C 274.703 41.122,278.887 44.201,281.491 48.753 C 285.203 55.240,285.205 67.298,281.495 74.667 C 275.407 86.758,258.515 91.364,243.222 85.101 C 239.364 83.521,233.167 79.431,233.167 78.464 C 233.167 78.332,241.995 65.612,243.242 63.949 C 243.450 63.671,243.575 63.756,244.859 65.047 C 248.147 68.354,251.731 69.838,256.417 69.830 C 266.106 69.815,269.397 61.050,261.250 56.960 C 260.218 56.442,258.321 55.628,253.750 53.743 C 253.017 53.440,251.292 52.727,249.917 52.159 C 238.704 47.520,234.049 40.406,234.549 28.673 C 235.197 13.473,248.706 3.246,264.833 5.746 M27.750 5.605 C 16.743 6.789,7.999 14.268,5.800 24.381 C 5.305 26.658,5.261 32.947,5.722 35.583 C 7.178 43.903,11.802 48.516,23.417 53.233 C 27.781 55.006,30.090 55.973,31.558 56.641 C 41.052 60.964,36.274 71.106,25.333 69.854 C 21.333 69.396,18.627 68.109,15.754 65.297 C 14.931 64.492,14.218 63.836,14.170 63.840 C 14.122 63.844,13.319 64.950,12.385 66.299 C 11.452 67.647,9.209 70.850,7.401 73.417 C 5.593 75.983,4.107 78.227,4.099 78.403 C 4.067 79.072,7.901 81.998,10.917 83.605 C 20.378 88.648,33.242 89.116,41.822 84.729 C 50.592 80.245,54.895 72.596,54.887 61.500 C 54.879 49.361,50.365 43.128,38.113 38.334 C 36.263 37.610,33.962 36.687,33.000 36.283 C 32.037 35.879,30.597 35.275,29.799 34.940 C 23.775 32.413,21.844 28.195,25.101 24.677 C 29.046 20.416,35.739 21.144,42.103 26.525 C 42.954 27.245,43.710 27.830,43.783 27.825 C 43.857 27.821,45.995 24.840,48.535 21.202 L 53.153 14.587 52.701 14.111 C 47.363 8.479,36.251 4.691,27.750 5.605 M63.375 7.292 L 58.000 7.338 58.000 46.669 L 58.000 86.000 62.056 86.000 C 64.287 86.000,68.262 85.950,70.890 85.890 L 75.667 85.780 75.667 46.473 L 75.667 7.167 72.208 7.206 C 70.306 7.228,66.331 7.266,63.375 7.292 M382.028 7.434 C 382.104 7.481,382.167 12.353,382.167 18.260 L 382.167 29.000 387.907 29.000 C 391.064 29.000,393.685 29.062,393.732 29.138 C 393.811 29.266,393.367 31.081,391.643 37.667 C 391.272 39.087,390.741 41.169,390.465 42.292 L 389.962 44.333 386.064 44.333 L 382.167 44.333 382.167 54.553 C 382.167 66.655,382.220 66.990,384.419 68.723 C 386.537 70.392,391.855 71.172,395.076 70.287 C 396.321 69.944,396.274 69.791,395.603 72.018 C 394.972 74.112,393.891 77.839,393.166 80.417 C 391.801 85.270,391.148 87.419,390.991 87.576 C 390.740 87.825,384.590 87.785,382.750 87.522 C 372.529 86.061,366.815 80.728,364.788 70.761 C 364.467 69.180,364.444 68.370,364.382 56.708 L 364.316 44.333 358.491 44.333 C 353.941 44.333,352.667 44.288,352.670 44.125 C 352.671 44.010,352.814 43.392,352.988 42.750 C 353.452 41.032,354.926 35.452,355.672 32.583 C 356.030 31.208,356.387 29.858,356.465 29.583 L 356.607 29.083 360.470 29.039 L 364.333 28.994 364.333 18.054 L 364.333 7.113 373.111 7.231 C 377.939 7.295,381.951 7.387,382.028 7.434 M194.833 26.936 C 180.549 28.246,168.989 37.636,165.903 50.437 C 159.693 76.200,188.534 96.516,213.408 83.899 C 234.289 73.307,235.884 45.198,216.333 32.340 C 210.492 28.498,201.753 26.302,194.833 26.936 M324.417 27.267 C 338.887 29.041,350.312 39.762,352.106 53.250 C 352.411 55.546,352.434 57.334,352.375 74.208 L 352.333 86.167 346.625 86.166 C 343.485 86.166,339.510 86.117,337.792 86.057 L 334.667 85.947 334.667 85.204 C 334.667 84.351,334.808 84.354,332.750 85.168 C 323.209 88.940,312.339 88.393,303.667 83.703 C 295.225 79.139,289.718 72.048,287.794 63.269 C 287.240 60.737,287.241 53.920,287.797 51.287 C 290.466 38.634,301.565 28.937,315.298 27.259 C 318.990 26.808,320.688 26.810,324.417 27.267 M126.445 27.326 C 123.454 27.845,122.188 28.170,120.088 28.958 C 95.361 38.230,93.026 72.226,116.250 84.814 C 124.099 89.068,133.604 89.722,141.705 86.567 C 142.505 86.255,143.199 86.000,143.246 86.000 C 143.467 86.000,143.321 92.072,143.071 93.283 C 141.245 102.123,130.612 105.312,124.234 98.933 C 122.222 96.922,121.550 95.566,120.903 92.221 C 120.838 91.885,120.620 91.982,117.958 93.531 C 116.377 94.451,113.846 95.920,112.333 96.795 C 110.821 97.670,108.608 98.951,107.417 99.642 C 106.225 100.332,104.970 101.052,104.628 101.240 C 103.887 101.649,103.889 101.659,104.928 103.750 C 108.405 110.748,116.132 116.296,124.417 117.744 C 144.248 121.209,160.378 111.116,161.831 94.333 C 162.047 91.839,162.049 56.263,161.834 53.583 C 160.639 38.730,152.170 29.429,138.000 27.407 C 134.970 26.975,128.720 26.931,126.445 27.326 M79.333 57.667 L 79.333 86.000 88.167 86.000 L 97.000 86.000 97.000 57.667 L 97.000 29.333 88.167 29.333 L 79.333 29.333 79.333 57.667 M200.628 43.189 C 209.766 44.877,215.116 55.313,211.020 63.460 C 205.171 75.093,188.134 74.187,183.557 61.999 C 180.325 53.397,186.376 44.309,196.250 42.932 C 196.965 42.833,199.505 42.981,200.628 43.189 M318.250 43.109 C 304.908 44.694,300.334 60.693,310.951 68.644 C 319.810 75.278,332.980 69.929,334.515 59.073 C 335.765 50.237,327.396 42.023,318.250 43.109 M135.667 43.664 C 146.499 46.780,150.006 59.649,142.161 67.494 C 135.549 74.107,125.023 73.029,119.789 65.204 C 114.085 56.676,119.298 45.293,129.833 43.271 C 130.875 43.071,134.441 43.312,135.667 43.664 M321.461 47.156 C 321.620 47.241,322.125 47.396,322.583 47.500 C 323.679 47.749,325.311 48.479,325.832 48.954 C 326.060 49.163,326.299 49.333,326.364 49.333 C 326.592 49.333,328.432 51.259,328.832 51.917 C 329.055 52.283,329.328 52.676,329.438 52.789 C 330.869 54.261,330.783 60.274,329.307 61.927 C 329.138 62.117,329.000 62.366,329.000 62.481 C 329.000 63.362,325.025 66.413,323.012 67.078 C 320.934 67.764,316.114 67.494,315.500 66.657 C 315.454 66.595,315.026 66.346,314.548 66.105 C 312.760 65.204,310.993 63.269,309.779 60.883 C 308.282 57.941,309.108 53.600,311.710 50.742 C 313.208 49.095,316.326 47.349,317.792 47.337 C 317.998 47.335,318.167 47.258,318.167 47.167 C 318.167 46.954,321.067 46.944,321.461 47.156 " stroke="none" fill="#040404" fill-rule="evenodd"></path></g></svg>
