<?xml version="1.0" standalone="no"?>
<!DOCTYPE svg PUBLIC "-//W3C//DTD SVG 20010904//EN"
 "http://www.w3.org/TR/2001/REC-SVG-20010904/DTD/svg10.dtd">
<svg version="1.0" xmlns="http://www.w3.org/2000/svg"
 width="2111.000000pt" height="645.000000pt" viewBox="0 0 2111.000000 645.000000"
 preserveAspectRatio="xMidYMid meet">

<g transform="translate(0.000000,645.000000) scale(0.100000,-0.100000)"
fill="#000000" stroke="none">
<path d="M13420 6340 c-135 -24 -321 -85 -436 -143 -327 -164 -602 -460 -721
-776 -60 -159 -75 -251 -80 -489 -8 -337 27 -546 126 -746 63 -128 122 -205
252 -331 180 -173 292 -240 654 -390 523 -216 524 -217 572 -267 72 -74 47
-138 -75 -196 -75 -36 -80 -37 -187 -36 -93 0 -122 5 -190 28 -119 41 -180 80
-283 183 -103 102 -139 120 -225 109 -59 -7 -106 -35 -151 -89 -43 -54 -247
-347 -254 -367 -3 -8 -11 -19 -18 -25 -27 -22 -279 -393 -292 -430 -19 -55
-10 -137 22 -185 30 -46 177 -170 294 -249 547 -368 1403 -437 1959 -158 153
77 269 162 394 286 159 159 255 307 324 504 l28 78 35 -63 c237 -430 680 -769
1173 -898 196 -51 303 -64 529 -65 234 0 325 11 519 62 75 20 150 35 166 35
17 -1 260 -7 540 -13 387 -9 520 -8 553 0 54 15 117 77 131 128 6 22 12 364
16 833 7 836 4 955 -35 1133 -11 50 -20 95 -20 99 0 4 65 8 145 8 l145 0 0
-524 c0 -409 3 -550 15 -638 80 -603 423 -976 1011 -1098 145 -29 425 -46 548
-32 112 13 158 36 201 101 17 25 70 191 157 487 119 405 131 457 132 530 1 71
-2 85 -26 121 -15 22 -44 51 -65 64 -45 28 -117 31 -260 9 -169 -26 -317 14
-358 95 -19 38 -20 63 -23 462 l-3 421 144 4 c136 3 146 4 184 30 22 15 50 42
61 60 11 18 68 220 127 448 94 364 107 422 102 473 -6 70 -38 124 -94 158 -37
23 -45 24 -280 27 l-242 3 -3 507 -3 507 -24 38 c-13 21 -42 50 -64 65 l-41
27 -506 8 c-371 7 -518 6 -549 -3 -53 -14 -116 -75 -130 -127 -7 -24 -11 -214
-11 -530 l0 -491 -138 -4 c-131 -3 -141 -4 -180 -30 -22 -15 -52 -47 -65 -70
-14 -24 -54 -157 -93 -305 -37 -145 -71 -263 -74 -263 -3 0 -28 30 -57 68 -66
87 -247 263 -343 334 -456 337 -1044 460 -1630 342 -540 -108 -993 -427 -1265
-889 -45 -76 -125 -242 -125 -258 0 -3 -5 -18 -10 -33 l-11 -28 -46 70 c-70
105 -249 277 -377 362 -139 94 -207 127 -435 217 -435 171 -551 225 -597 276
-30 34 -34 51 -19 86 10 23 30 39 79 63 63 31 70 33 154 28 142 -9 232 -54
411 -208 63 -53 108 -84 135 -91 55 -15 139 -5 181 21 43 27 562 762 577 818
14 51 4 136 -22 178 -31 49 -165 163 -295 250 -200 133 -444 234 -690 285
-149 31 -527 36 -675 9z m445 -180 c374 -36 729 -188 994 -427 l55 -50 -248
-354 c-137 -195 -250 -356 -252 -358 -2 -2 -43 30 -91 71 -221 188 -328 233
-554 233 l-135 0 -76 -37 c-167 -83 -237 -214 -193 -363 14 -49 28 -70 83
-125 82 -81 128 -103 542 -270 344 -138 431 -180 541 -261 344 -255 469 -526
469 -1014 -1 -397 -87 -672 -286 -917 -73 -88 -216 -208 -330 -276 -480 -283
-1203 -266 -1753 44 -90 50 -258 173 -304 222 l-29 30 273 388 c149 214 273
390 275 392 1 2 37 -32 81 -75 132 -134 270 -207 448 -238 172 -30 306 -15
440 50 94 45 148 94 182 163 24 48 28 69 27 137 0 101 -28 160 -110 233 -70
63 -127 91 -495 242 -441 182 -522 226 -680 367 -243 218 -331 407 -360 779
-18 232 15 461 95 645 221 512 788 826 1391 769z m6208 -97 l97 -6 0 -569 0
-568 305 0 c279 0 305 -1 305 -17 0 -13 -74 -307 -191 -755 l-10 -38 -205 0
-205 0 3 -559 3 -558 35 -69 c44 -86 104 -134 215 -171 73 -24 94 -26 235 -26
114 0 168 4 203 16 44 14 47 14 43 -1 -3 -10 -64 -219 -135 -466 -72 -247
-133 -451 -136 -455 -4 -3 -88 -5 -188 -5 -491 4 -834 159 -1034 467 -73 111
-117 225 -156 395 -20 93 -21 122 -25 765 l-3 667 -310 0 c-170 0 -309 3 -309
6 0 5 196 755 206 787 5 15 24 17 210 17 l204 0 0 575 0 575 373 0 c204 0 416
-3 470 -7z m-3005 -1044 c215 -23 445 -90 634 -184 437 -218 771 -635 862
-1078 32 -155 36 -258 36 -1054 l0 -803 -297 0 c-164 0 -376 3 -470 7 l-173 6
0 40 c0 27 -4 38 -12 34 -307 -126 -471 -161 -768 -161 -215 -1 -275 6 -455
51 -557 138 -1026 557 -1190 1063 -59 183 -70 261 -70 490 0 221 13 312 72
488 128 388 440 735 828 922 315 152 670 216 1003 179z"/>
<path d="M16765 4170 c-275 -44 -510 -225 -614 -473 -41 -100 -55 -189 -48
-316 10 -198 88 -358 244 -500 120 -111 239 -170 395 -197 339 -59 678 109
837 416 58 112 75 184 75 325 0 141 -17 214 -75 325 -51 99 -114 177 -196 245
-78 65 -219 136 -314 159 -83 20 -227 28 -304 16z m304 -229 c192 -70 328
-217 376 -406 71 -278 -144 -586 -455 -651 -191 -40 -376 19 -526 170 -125
125 -171 242 -161 405 14 245 210 454 479 511 74 16 199 3 287 -29z"/>
<path d="M4517 6230 c-78 -20 -152 -64 -218 -129 -153 -153 -188 -364 -93
-562 60 -124 188 -229 315 -258 56 -13 172 -13 228 0 172 39 327 201 362 377
45 231 -84 470 -299 553 -64 25 -228 35 -295 19z"/>
<path d="M1406 6144 c-397 -61 -715 -257 -924 -566 -87 -129 -142 -261 -178
-428 -26 -118 -26 -443 -1 -579 51 -275 162 -461 380 -636 120 -97 238 -163
445 -249 100 -42 264 -110 365 -152 220 -91 277 -123 342 -189 76 -75 90 -111
90 -225 0 -79 -4 -102 -23 -138 -35 -65 -97 -119 -186 -162 -108 -51 -171 -64
-296 -63 -238 3 -438 87 -603 257 -37 38 -69 67 -71 65 -23 -26 -530 -757
-532 -769 -2 -9 23 -38 62 -70 257 -216 579 -355 940 -406 162 -22 474 -15
618 15 283 58 513 178 702 366 85 84 173 203 222 300 177 352 186 976 20 1310
-47 94 -108 173 -204 265 -169 162 -261 216 -619 359 -455 181 -523 213 -606
288 -66 60 -92 114 -97 202 -4 64 -1 86 18 129 29 68 102 134 196 179 63 30
89 36 162 40 98 6 211 -12 305 -47 72 -27 209 -118 300 -199 37 -34 71 -61 75
-61 8 0 478 668 487 692 13 33 -207 201 -384 292 -194 99 -369 155 -571 182
-131 17 -317 16 -434 -2z"/>
<path d="M3168 6063 l-108 -4 0 -2074 0 -2075 248 0 c136 0 345 3 465 7 l217
6 0 2074 0 2073 -357 -2 c-197 -1 -406 -4 -465 -5z"/>
<path d="M10220 5019 c-617 -70 -1156 -455 -1386 -990 -171 -400 -159 -883 31
-1274 220 -454 671 -791 1210 -905 129 -27 429 -38 569 -21 212 27 406 86 597
181 481 241 810 678 883 1173 22 147 21 368 -3 509 -72 420 -318 791 -689
1039 -340 228 -794 335 -1212 288z m409 -860 c135 -35 315 -147 403 -252 60
-72 109 -156 141 -241 26 -70 31 -98 35 -209 5 -149 -10 -229 -64 -343 -160
-338 -552 -522 -915 -429 -259 66 -494 297 -565 555 -27 100 -25 283 5 380 59
192 171 336 347 446 183 114 401 147 613 93z"/>
<path d="M6635 5001 c-521 -96 -936 -397 -1169 -851 -145 -282 -203 -571 -177
-879 26 -298 108 -536 269 -776 245 -366 642 -622 1077 -697 103 -17 148 -19
315 -15 218 6 313 22 484 83 56 19 109 38 119 41 16 5 17 -6 17 -146 0 -268
-43 -396 -179 -532 -119 -119 -261 -179 -424 -179 -274 1 -517 199 -575 469
l-17 80 -430 -250 c-237 -138 -436 -254 -443 -258 -31 -18 72 -206 194 -352
278 -334 615 -496 1099 -529 541 -37 1031 108 1332 393 185 176 324 417 381
662 40 170 43 280 40 1360 -4 923 -6 1041 -22 1135 -64 386 -190 649 -413 861
-100 95 -195 160 -348 237 -240 120 -401 153 -775 158 -216 3 -270 1 -355 -15z
m561 -869 c414 -140 629 -563 489 -965 -33 -96 -79 -169 -160 -255 -165 -176
-340 -255 -565 -255 -273 0 -527 153 -675 407 -49 84 -77 193 -82 316 -6 142
11 233 66 345 86 180 232 318 412 391 105 43 172 54 304 50 102 -3 134 -8 211
-34z"/>
<path d="M4190 3405 l0 -1495 465 0 465 0 0 1495 0 1495 -465 0 -465 0 0
-1495z"/>
</g>
</svg>
